# xmcd
#
# Track frame offsets:
#	150
#	13217
#	25407
#	34943
#	45691
#	57101
#	70691
#	80735
#	92026
#	106319
#
# Disc length: 1596 seconds
#
# Revision: 1
# Processed by: cddbd v1.4PL0 Copyright (c) Steve Scherf et al.
# Submitted via: audiograbber 1.80.04
#
DISCID=80063a0a
DTITLE=Vernon Oxford - R C A Singkes
DYEAR=1900
DGENRE=Country
TTITLE0=I Wish You Would Leave Me Alone 10185 A 1975
TTITLE1=Soft And Warm B
TTITLE2=Giving The Pill 10348  1975
TTITLE3=A Country Singer 10348
TTITLE4=Redneck Anthum 10693 1976
TTITLE5=Clean Your Own Tables 10787 1076
TTITLE6=Good Old-Fasoined Saturday Night Honky Tonk Bar Room Brawl 10872 1977
TTITLE7=One More Night To Spare B
TTITLE8=Redneck Roots 11020 1977
TTITLE9=Images B
EXTD=
EXTT0=
EXTT1=
EXTT2=
EXTT3=
EXTT4=
EXTT5=
EXTT6=
EXTT7=
EXTT8=
EXTT9=
PLAYORDER=
